<?xml version="1.0" encoding="UTF-8"?>
<svg width="64" height="40" viewBox="0 0 64 40" fill="none" xmlns="http://www.w3.org/2000/svg" xmlns:xlink="http://www.w3.org/1999/xlink">
  <rect width="64" height="40" rx="8" fill="transparent"/>
  <path d="M6 24C6 22.3431 7.34315 21 9 21H55C56.6569 21 58 22.3431 58 24V26C58 27.6569 56.6569 29 55 29H9C7.34315 29 6 27.6569 6 26V24Z" fill="#111827" opacity="0.06"/>
  <path d="M8 24L12 16H52L56 24V28H8V24Z" fill="#111827"/>
  <path d="M14 16L18 10H46L50 16" stroke="#ffffff" stroke-width="1.6" stroke-linecap="round" stroke-linejoin="round" opacity="0.9"/>
  <circle cx="20" cy="30" r="3.6" fill="#111827"/>
  <circle cx="44" cy="30" r="3.6" fill="#111827"/>
  <circle cx="20" cy="30" r="1.6" fill="#ffffff"/>
  <circle cx="44" cy="30" r="1.6" fill="#ffffff"/>
</svg>
